<svg width="59" height="59" viewBox="0 0 59 59" fill="none" xmlns="http://www.w3.org/2000/svg">
<g filter="url(#filter0_d)">
<path d="M53.9823 25.0213C54.2485 38.5497 43.4974 49.7324 29.969 49.9986C16.4406 50.2648 5.25794 39.5137 4.99174 25.9853C4.72554 12.457 15.4766 1.27427 29.005 1.00807C42.5334 0.741868 53.7161 11.493 53.9823 25.0213Z" stroke="black"/>
</g>
<path d="M29.7776 40.2681C29.048 40.2825 28.6386 41.1142 29.0722 41.7011C29.4404 42.1994 30.1905 42.1847 30.5387 41.6722C30.9489 41.0687 30.5071 40.2538 29.7776 40.2681Z" fill="black" stroke="black"/>
<path d="M42.7074 36.2537C39.9421 36.8994 37.5443 38.5004 34.8872 39.4386" stroke="black" stroke-linecap="round" stroke-linejoin="round"/>
<path d="M43.8633 43.3035C41.8823 43.0431 37.7005 42.0069 35.8014 41.4193" stroke="black" stroke-linecap="round" stroke-linejoin="round"/>
<path d="M23.414 20.86C23.5535 21.0324 23.4053 20.8602 23.4053 20.8602L23.414 20.86Z" fill="black"/>
<path d="M35.3209 20.6257C35.1883 20.8034 35.3297 20.6255 35.3297 20.6255L35.3209 20.6257Z" fill="black"/>
<path d="M11.8842 41.3191C10.2962 41.1465 13.8678 9.4415 19.1156 15.7074C22.2992 19.5086 23.1988 20.5941 23.414 20.86M23.414 20.86C23.5535 21.0324 23.4053 20.8602 23.4053 20.8602L23.414 20.86ZM23.414 20.86L32.4552 20.6821L35.3209 20.6257M47.6467 40.6154C49.2266 40.3805 44.4106 8.8405 39.4133 15.308C36.3817 19.2315 35.5255 20.3516 35.3209 20.6257M35.3209 20.6257C35.1883 20.8034 35.3297 20.6255 35.3297 20.6255L35.3209 20.6257Z" stroke="black" stroke-linecap="round" stroke-linejoin="round"/>
<path d="M16.723 36.7649C19.5116 37.3013 21.9705 38.8068 24.6625 39.6398" stroke="black" stroke-linecap="round" stroke-linejoin="round"/>
<path d="M15.8454 43.8548C17.8147 43.5166 21.9525 42.3168 23.827 41.6549" stroke="black" stroke-linecap="round" stroke-linejoin="round"/>
<path d="M19.3481 31.2489C22.3927 35.1157 26.4717 31.1087 26.4717 31.1087" stroke="black"/>
<path d="M32.4705 30.9906C35.5151 34.8574 39.5941 30.8504 39.5941 30.8504" stroke="black"/>
<defs>
<filter id="filter0_d" x="0" y="0.0163574" width="58.974" height="58.974" filterUnits="userSpaceOnUse" color-interpolation-filters="sRGB">
<feFlood flood-opacity="0" result="BackgroundImageFix"/>
<feColorMatrix in="SourceAlpha" type="matrix" values="0 0 0 0 0 0 0 0 0 0 0 0 0 0 0 0 0 0 127 0"/>
<feOffset dy="4"/>
<feGaussianBlur stdDeviation="2"/>
<feColorMatrix type="matrix" values="0 0 0 0 0 0 0 0 0 0 0 0 0 0 0 0 0 0 0.25 0"/>
<feBlend mode="normal" in2="BackgroundImageFix" result="effect1_dropShadow"/>
<feBlend mode="normal" in="SourceGraphic" in2="effect1_dropShadow" result="shape"/>
</filter>
</defs>
</svg>
