<svg width="58" height="58" viewBox="0 0 58 58" fill="none" xmlns="http://www.w3.org/2000/svg">
<g filter="url(#filter0_d)">
<path d="M54 25C54 38.8071 42.8071 50 29 50C15.1929 50 4 38.8071 4 25C4 11.1929 15.1929 0 29 0C42.8071 0 54 11.1929 54 25Z" fill="white"/>
<path d="M52.5 25C52.5 37.9787 41.9787 48.5 29 48.5C16.0213 48.5 5.5 37.9787 5.5 25C5.5 12.0213 16.0213 1.5 29 1.5C41.9787 1.5 52.5 12.0213 52.5 25Z" stroke="black" stroke-width="3"/>
</g>
<path d="M29 40.7677C29.0003 40.7677 29.0022 40.7676 29.0056 40.7671C29.0096 40.7666 29.0147 40.7655 29.0206 40.7638C29.0328 40.7602 29.0449 40.7547 29.0556 40.7479C29.0681 40.7399 29.0764 40.7318 29.0821 40.7248C29.0856 40.7203 29.0881 40.7163 29.0898 40.713C29.0941 40.7047 29.0996 40.6892 29.0984 40.665C29.0978 40.6524 29.0953 40.6393 29.0912 40.6272C29.0892 40.6214 29.0871 40.6167 29.0852 40.6131C29.0834 40.6096 29.0823 40.608 29.0824 40.6082C29.0766 40.6 29.0628 40.5864 29.0432 40.5766C29.0262 40.5681 29.0114 40.5656 29 40.5656C28.9886 40.5656 28.9738 40.5681 28.9568 40.5766C28.9372 40.5864 28.9234 40.6 28.9176 40.6082C28.9174 40.6084 28.9163 40.6101 28.9148 40.6131C28.9129 40.6167 28.9108 40.6214 28.9088 40.6272C28.9047 40.6393 28.9022 40.6524 28.9016 40.665C28.9004 40.6892 28.9059 40.7047 28.9102 40.713C28.9119 40.7163 28.9144 40.7203 28.9179 40.7248C28.9236 40.7318 28.9319 40.7399 28.9444 40.7479C28.9551 40.7547 28.9671 40.7602 28.9794 40.7638C28.9853 40.7655 28.9904 40.7666 28.9944 40.7671C28.9983 40.7677 29.0003 40.7677 29 40.7677Z" fill="black" stroke="black" stroke-width="3"/>
<path d="M42.0063 36.0083C39.2288 36.5995 36.8 38.1531 34.125 39.0388" stroke="black" stroke-width="3" stroke-linecap="round" stroke-linejoin="round"/>
<path d="M43.0233 43.0795C41.0478 42.7802 36.8872 41.662 35 41.0371" stroke="black" stroke-width="3" stroke-linecap="round" stroke-linejoin="round"/>
<path d="M23.0196 20.2381C23.1556 20.4132 23.0108 20.2381 23.0108 20.2381H23.0196Z" fill="black"/>
<path d="M34.9288 20.2381C34.7927 20.4132 34.9375 20.2381 34.9375 20.2381H34.9288Z" fill="black"/>
<path d="M11.0894 40.4664C9.50521 40.2626 13.6998 8.63396 18.8233 15.0018C21.9316 18.865 22.8097 19.968 23.0196 20.2381M23.0196 20.2381C23.1556 20.4132 23.0108 20.2381 23.0108 20.2381H23.0196ZM23.0196 20.2381H32.0625H34.9288M46.8589 40.4664C48.4431 40.2626 44.2485 8.63396 39.125 15.0018C36.0168 18.865 35.1387 19.968 34.9288 20.2381M34.9288 20.2381C34.7927 20.4132 34.9375 20.2381 34.9375 20.2381H34.9288Z" stroke="black" stroke-width="3" stroke-linecap="round" stroke-linejoin="round"/>
<path d="M16.017 36.0083C18.7945 36.5995 21.2233 38.1531 23.8983 39.0388" stroke="black" stroke-width="3" stroke-linecap="round" stroke-linejoin="round"/>
<path d="M15 43.0795C16.9755 42.7802 21.1361 41.662 23.0233 41.0371" stroke="black" stroke-width="3" stroke-linecap="round" stroke-linejoin="round"/>
<path d="M18.75 30.5449C21.718 34.4709 25.875 30.5449 25.875 30.5449" stroke="black" stroke-width="3"/>
<path d="M31.875 30.5449C34.843 34.4709 39 30.5449 39 30.5449" stroke="black" stroke-width="3"/>
<defs>
<filter id="filter0_d" x="0" y="0" width="58" height="58" filterUnits="userSpaceOnUse" color-interpolation-filters="sRGB">
<feFlood flood-opacity="0" result="BackgroundImageFix"/>
<feColorMatrix in="SourceAlpha" type="matrix" values="0 0 0 0 0 0 0 0 0 0 0 0 0 0 0 0 0 0 127 0"/>
<feOffset dy="4"/>
<feGaussianBlur stdDeviation="2"/>
<feColorMatrix type="matrix" values="0 0 0 0 0 0 0 0 0 0 0 0 0 0 0 0 0 0 0.25 0"/>
<feBlend mode="normal" in2="BackgroundImageFix" result="effect1_dropShadow"/>
<feBlend mode="normal" in="SourceGraphic" in2="effect1_dropShadow" result="shape"/>
</filter>
</defs>
</svg>
